<?xml version="1.0" standalone="no"?><svg xmlns:xlink="http://www.w3.org/1999/xlink" xmlns="http://www.w3.org/2000/svg" viewBox="0 0 1000 588.2352941176471" preserveAspectRatio="xMaxYMax slice"><g transform="scale(0.773586657177337)"><rect x="0" y="0" width="1292.68" height="760.4000000000001" fill="#ffffff"/><circle cx="38.025000000000006" cy="38.025000000000006" r="7.605" fill="#222A35"/><circle cx="114.065" cy="38.025000000000006" r="7.605" fill="#222A35"/><circle cx="190.105" cy="38.025000000000006" r="7.605" fill="#2273e9"/><circle cx="266.14500000000004" cy="38.025000000000006" r="7.605" fill="#2273e9"/><circle cx="342.185" cy="38.025000000000006" r="7.605" fill="#222A35"/><circle cx="418.225" cy="38.025000000000006" r="7.605" fill="#222A35"/><circle cx="494.26500000000004" cy="38.025000000000006" r="7.605" fill="#2273e9"/><circle cx="570.3050000000001" cy="38.025000000000006" r="7.605" fill="#222A35"/><circle cx="646.345" cy="38.025000000000006" r="7.605" fill="#2273e9"/><circle cx="722.385" cy="38.025000000000006" r="7.605" fill="#222A35"/><circle cx="798.4250000000001" cy="38.025000000000006" r="7.605" fill="#222A35"/><circle cx="874.465" cy="38.025000000000006" r="7.605" fill="#2273e9"/><circle cx="950.505" cy="38.025000000000006" r="7.605" fill="#222A35"/><circle cx="1026.545" cy="38.025000000000006" r="7.605" fill="#2273e9"/><circle cx="1102.585" cy="38.025000000000006" r="7.605" fill="#222A35"/><circle cx="1178.625" cy="38.025000000000006" r="7.605" fill="#222A35"/><circle cx="1254.665" cy="38.025000000000006" r="7.605" fill="#222A35"/><circle cx="38.025000000000006" cy="114.065" r="7.605" fill="#2273e9"/><circle cx="114.06500000000001" cy="114.06500000000001" r="8.635" fill="#222A35"/><circle cx="190.095" cy="114.055" r="9.665" fill="#2273e9"/><circle cx="266.135" cy="114.055" r="10.695" fill="#2273e9"/><circle cx="342.175" cy="114.05499999999999" r="11.725" fill="#222A35"/><circle cx="418.215" cy="114.05499999999999" r="12.755" fill="#222A35"/><circle cx="494.25500000000005" cy="114.05499999999999" r="13.785" fill="#222A35"/><circle cx="570.3000000000001" cy="114.06" r="14.82" fill="#2273e9"/><circle cx="646.345" cy="114.065" r="14.905" fill="#222A35"/><circle cx="722.385" cy="114.065" r="14.905" fill="#222A35"/><circle cx="798.4200000000001" cy="114.06" r="14.82" fill="#222A35"/><circle cx="874.4549999999999" cy="114.05499999999999" r="13.785" fill="#222A35"/><circle cx="950.495" cy="114.05499999999999" r="12.755" fill="#222A35"/><circle cx="1026.5349999999999" cy="114.05499999999999" r="11.725" fill="#2273e9"/><circle cx="1102.575" cy="114.055" r="10.695" fill="#2273e9"/><circle cx="1178.615" cy="114.055" r="9.665" fill="#2273e9"/><circle cx="1254.665" cy="114.06500000000001" r="8.635" fill="#222A35"/><circle cx="38.025000000000006" cy="190.105" r="7.605" fill="#2273e9"/><circle cx="114.055" cy="190.095" r="9.665" fill="#2273e9"/><circle cx="190.095" cy="190.095" r="11.725" fill="#2273e9"/><circle cx="266.135" cy="190.095" r="13.785" fill="#2273e9"/><circle cx="342.18" cy="190.1" r="15.85" fill="#222A35"/><circle cx="418.22" cy="190.1" r="17.91" fill="#2273e9"/><circle cx="494.26" cy="190.1" r="19.97" fill="#222A35"/><circle cx="570.3" cy="190.1" r="22.03" fill="#2273e9"/><circle cx="646.345" cy="190.10500000000002" r="22.205" fill="#2273e9"/><circle cx="722.385" cy="190.10500000000002" r="22.205" fill="#222A35"/><circle cx="798.42" cy="190.1" r="22.03" fill="#2273e9"/><circle cx="874.46" cy="190.1" r="19.97" fill="#222A35"/><circle cx="950.5" cy="190.1" r="17.91" fill="#222A35"/><circle cx="1026.54" cy="190.1" r="15.85" fill="#2273e9"/><circle cx="1102.575" cy="190.095" r="13.785" fill="#2273e9"/><circle cx="1178.615" cy="190.095" r="11.725" fill="#222A35"/><circle cx="1254.655" cy="190.095" r="9.665" fill="#2273e9"/><circle cx="38.025000000000006" cy="266.14500000000004" r="7.605" fill="#222A35"/><circle cx="114.055" cy="266.135" r="10.695" fill="#222A35"/><circle cx="190.095" cy="266.135" r="13.785" fill="#2273e9"/><circle cx="266.14" cy="266.14" r="16.88" fill="#222A35"/><circle cx="342.17999999999995" cy="266.14" r="19.97" fill="#2273e9"/><circle cx="418.22" cy="266.14" r="23.06" fill="#2273e9"/><circle cx="494.265" cy="266.145" r="26.155" fill="#2273e9"/><circle cx="570.295" cy="266.135" r="29.245" fill="#2273e9"/><circle cx="646.345" cy="266.145" r="29.505" fill="#2273e9"/><circle cx="722.385" cy="266.145" r="29.505" fill="#2273e9"/><circle cx="798.415" cy="266.135" r="29.245" fill="#2273e9"/><circle cx="874.4649999999999" cy="266.145" r="26.155" fill="#222A35"/><circle cx="950.5" cy="266.14" r="23.06" fill="#222A35"/><circle cx="1026.54" cy="266.14" r="19.97" fill="#222A35"/><circle cx="1102.5800000000002" cy="266.14" r="16.88" fill="#222A35"/><circle cx="1178.615" cy="266.135" r="13.785" fill="#2273e9"/><circle cx="1254.655" cy="266.135" r="10.695" fill="#222A35"/><circle cx="38.025000000000006" cy="342.185" r="7.605" fill="#2273e9"/><circle cx="114.05499999999999" cy="342.175" r="11.725" fill="#2273e9"/><circle cx="190.1" cy="342.18" r="15.85" fill="#222A35"/><circle cx="266.14" cy="342.17999999999995" r="19.97" fill="#222A35"/><circle cx="342.18499999999995" cy="342.18499999999995" r="24.095" fill="#222A35"/><circle cx="418.215" cy="342.17499999999995" r="28.215" fill="#2273e9"/><circle cx="494.26" cy="342.17999999999995" r="32.34" fill="#2273e9"/><circle cx="570.3000000000001" cy="342.18" r="36.46" fill="#222A35"/><circle cx="646.3449999999999" cy="342.185" r="36.805" fill="#2273e9"/><circle cx="722.385" cy="342.185" r="36.805" fill="#2273e9"/><circle cx="798.4200000000001" cy="342.18" r="36.46" fill="#2273e9"/><circle cx="874.46" cy="342.17999999999995" r="32.34" fill="#222A35"/><circle cx="950.495" cy="342.17499999999995" r="28.215" fill="#2273e9"/><circle cx="1026.545" cy="342.18499999999995" r="24.095" fill="#222A35"/><circle cx="1102.58" cy="342.17999999999995" r="19.97" fill="#222A35"/><circle cx="1178.62" cy="342.18" r="15.85" fill="#2273e9"/><circle cx="1254.655" cy="342.175" r="11.725" fill="#2273e9"/><circle cx="38.025000000000006" cy="418.225" r="7.605" fill="#2273e9"/><circle cx="114.06" cy="418.21999999999997" r="11.9" fill="#222A35"/><circle cx="190.1" cy="418.21999999999997" r="16.19" fill="#2273e9"/><circle cx="266.135" cy="418.21500000000003" r="20.485" fill="#222A35"/><circle cx="342.17999999999995" cy="418.22" r="24.78" fill="#2273e9"/><circle cx="418.22499999999997" cy="418.22499999999997" r="29.075" fill="#222A35"/><circle cx="494.26" cy="418.22" r="33.37" fill="#222A35"/><circle cx="570.3" cy="418.22" r="37.66" fill="#2273e9"/><circle cx="646.34" cy="418.21999999999997" r="38.02" fill="#2273e9"/><circle cx="722.38" cy="418.21999999999997" r="38.02" fill="#2273e9"/><circle cx="798.42" cy="418.22" r="37.66" fill="#2273e9"/><circle cx="874.46" cy="418.22" r="33.37" fill="#2273e9"/><circle cx="950.505" cy="418.22499999999997" r="29.075" fill="#222A35"/><circle cx="1026.54" cy="418.22" r="24.78" fill="#2273e9"/><circle cx="1102.5749999999998" cy="418.21500000000003" r="20.485" fill="#222A35"/><circle cx="1178.6200000000001" cy="418.21999999999997" r="16.19" fill="#2273e9"/><circle cx="1254.66" cy="418.21999999999997" r="11.9" fill="#2273e9"/><circle cx="38.025000000000006" cy="494.26500000000004" r="7.605" fill="#222A35"/><circle cx="114.05499999999999" cy="494.255" r="11.725" fill="#222A35"/><circle cx="190.1" cy="494.26000000000005" r="15.85" fill="#222A35"/><circle cx="266.14" cy="494.26" r="19.97" fill="#2273e9"/><circle cx="342.18499999999995" cy="494.265" r="24.095" fill="#2273e9"/><circle cx="418.215" cy="494.255" r="28.215" fill="#2273e9"/><circle cx="494.26" cy="494.26" r="32.34" fill="#222A35"/><circle cx="570.3000000000001" cy="494.26" r="36.46" fill="#2273e9"/><circle cx="646.3449999999999" cy="494.265" r="36.805" fill="#222A35"/><circle cx="722.385" cy="494.265" r="36.805" fill="#222A35"/><circle cx="798.4200000000001" cy="494.26" r="36.46" fill="#2273e9"/><circle cx="874.46" cy="494.26" r="32.34" fill="#2273e9"/><circle cx="950.495" cy="494.255" r="28.215" fill="#2273e9"/><circle cx="1026.545" cy="494.265" r="24.095" fill="#222A35"/><circle cx="1102.58" cy="494.26" r="19.97" fill="#2273e9"/><circle cx="1178.62" cy="494.26000000000005" r="15.85" fill="#222A35"/><circle cx="1254.655" cy="494.255" r="11.725" fill="#222A35"/><circle cx="38.025000000000006" cy="570.3050000000001" r="7.605" fill="#222A35"/><circle cx="114.055" cy="570.2950000000001" r="10.695" fill="#222A35"/><circle cx="190.095" cy="570.295" r="13.785" fill="#222A35"/><circle cx="266.14" cy="570.3" r="16.88" fill="#2273e9"/><circle cx="342.17999999999995" cy="570.3000000000001" r="19.97" fill="#2273e9"/><circle cx="418.22" cy="570.3" r="23.06" fill="#222A35"/><circle cx="494.265" cy="570.305" r="26.155" fill="#2273e9"/><circle cx="570.295" cy="570.295" r="29.245" fill="#2273e9"/><circle cx="646.345" cy="570.305" r="29.505" fill="#2273e9"/><circle cx="722.385" cy="570.305" r="29.505" fill="#222A35"/><circle cx="798.415" cy="570.295" r="29.245" fill="#2273e9"/><circle cx="874.4649999999999" cy="570.305" r="26.155" fill="#2273e9"/><circle cx="950.5" cy="570.3" r="23.06" fill="#2273e9"/><circle cx="1026.54" cy="570.3000000000001" r="19.97" fill="#2273e9"/><circle cx="1102.5800000000002" cy="570.3" r="16.88" fill="#2273e9"/><circle cx="1178.615" cy="570.295" r="13.785" fill="#2273e9"/><circle cx="1254.655" cy="570.2950000000001" r="10.695" fill="#2273e9"/><circle cx="38.025000000000006" cy="646.345" r="7.605" fill="#2273e9"/><circle cx="114.055" cy="646.3349999999999" r="9.665" fill="#222A35"/><circle cx="190.095" cy="646.335" r="11.725" fill="#222A35"/><circle cx="266.135" cy="646.3349999999999" r="13.785" fill="#222A35"/><circle cx="342.18" cy="646.34" r="15.85" fill="#222A35"/><circle cx="418.22" cy="646.3399999999999" r="17.91" fill="#222A35"/><circle cx="494.26" cy="646.34" r="19.97" fill="#222A35"/><circle cx="570.3" cy="646.3399999999999" r="22.03" fill="#222A35"/><circle cx="646.345" cy="646.345" r="22.205" fill="#2273e9"/><circle cx="722.385" cy="646.345" r="22.205" fill="#2273e9"/><circle cx="798.42" cy="646.3399999999999" r="22.03" fill="#2273e9"/><circle cx="874.46" cy="646.34" r="19.97" fill="#2273e9"/><circle cx="950.5" cy="646.3399999999999" r="17.91" fill="#2273e9"/><circle cx="1026.54" cy="646.34" r="15.85" fill="#2273e9"/><circle cx="1102.575" cy="646.3349999999999" r="13.785" fill="#222A35"/><circle cx="1178.615" cy="646.335" r="11.725" fill="#222A35"/><circle cx="1254.655" cy="646.3349999999999" r="9.665" fill="#2273e9"/><circle cx="38.025000000000006" cy="722.385" r="7.605" fill="#222A35"/><circle cx="114.06500000000001" cy="722.385" r="8.635" fill="#222A35"/><circle cx="190.095" cy="722.375" r="9.665" fill="#2273e9"/><circle cx="266.135" cy="722.375" r="10.695" fill="#222A35"/><circle cx="342.175" cy="722.375" r="11.725" fill="#2273e9"/><circle cx="418.215" cy="722.375" r="12.755" fill="#2273e9"/><circle cx="494.25500000000005" cy="722.375" r="13.785" fill="#222A35"/><circle cx="570.3000000000001" cy="722.38" r="14.82" fill="#2273e9"/><circle cx="646.345" cy="722.385" r="14.905" fill="#222A35"/><circle cx="722.385" cy="722.385" r="14.905" fill="#2273e9"/><circle cx="798.4200000000001" cy="722.38" r="14.82" fill="#222A35"/><circle cx="874.4549999999999" cy="722.375" r="13.785" fill="#2273e9"/><circle cx="950.495" cy="722.375" r="12.755" fill="#222A35"/><circle cx="1026.5349999999999" cy="722.375" r="11.725" fill="#222A35"/><circle cx="1102.575" cy="722.375" r="10.695" fill="#222A35"/><circle cx="1178.615" cy="722.375" r="9.665" fill="#2273e9"/><circle cx="1254.665" cy="722.385" r="8.635" fill="#222A35"/></g></svg>